Coordinates
version=1
nRows=11
nColumns=40
inDegrees=yes

Units are S.I. units (second, meters, Newtons, ...)
Angles are in degrees.

endheader
time	pelvis_tilt	pelvis_list	pelvis_rotation	pelvis_tx	pelvis_ty	pelvis_tz	hip_flexion_r	hip_adduction_r	hip_rotation_r	knee_angle_r	knee_angle_r_beta	ankle_angle_r	subtalar_angle_r	mtp_angle_r	hip_flexion_l	hip_adduction_l	hip_rotation_l	knee_angle_l	knee_angle_l_beta	ankle_angle_l	subtalar_angle_l	mtp_angle_l	lumbar_extension	lumbar_bending	lumbar_rotation	arm_flex_r	arm_add_r	arm_rot_r	elbow_flex_r	pro_sup_r	wrist_flex_r	wrist_dev_r	arm_flex_l	arm_add_l	arm_rot_l	elbow_flex_l	pro_sup_l	wrist_flex_l	wrist_dev_l
      2.19000000	      2.82629803	      2.26339905	     -5.31887991	      0.47315579	      0.89878165	     -1.05001968	     13.35459986	     -5.45530169	     -5.26956048	    -63.77424010	     -1.11307047	     -5.00423136	    -16.76655770	     11.14098066	      4.20740969	     -4.67096628	     13.28887195	    -14.12069162	     -0.24645256	      4.13626273	     -5.92429670	     -4.89199686	     -9.06250332	     -1.36080893	      0.42008615	      9.99409279	     -7.72025996	     18.47216730	     18.23238475	     89.95437384	      0.00000000	      0.00000000	      3.45565378	      9.27035828	    -20.20115486	     17.45672326	     89.95437384	      0.00000000	      0.00000000
      2.20000000	      2.94429208	      1.98900527	     -5.11086198	      0.48238632	      0.89925896	     -1.05058775	     14.38271598	     -4.86204787	     -5.26291665	    -63.66825100	     -1.11122061	     -4.12796372	    -16.52174086	     11.00879406	      3.39771622	     -4.51781153	     12.81270320	    -14.15581232	     -0.24706553	      4.81716342	     -5.87067295	     -4.90563255	     -9.15653585	     -0.94968371	      0.08457758	      9.64316218	     -7.75881268	     18.29674961	     17.77397260	     89.95437384	      0.00000000	      0.00000000	      4.40691198	      9.52245789	    -20.23815642	     17.88482325	     89.95437384	      0.00000000	      0.00000000
      2.21000000	      3.15572657	      1.65104125	     -4.89746403	      0.49138801	      0.89988355	     -1.05089393	     15.21378842	     -4.13785576	     -5.21445585	    -63.19753620	     -1.10300509	     -3.06780867	    -16.04136033	     10.91123665	      2.51502427	     -4.29341755	     12.10250292	    -14.23091445	     -0.24837631	      5.74545711	     -5.68111125	     -4.88850689	     -9.42327817	     -0.51182234	     -0.24212946	      9.27284112	     -7.77559752	     17.86514648	     17.49615647	     89.95437384	      0.00000000	      0.00000000	      5.35230184	      9.87286301	    -20.25263910	     18.52092202	     89.95437384	      0.00000000	      0.00000000
      2.22000000	      3.18816823	      1.70197042	     -4.71823517	      0.50000230	      0.90001600	     -1.05151040	     16.48636054	     -4.01713101	     -5.26853574	    -62.86269523	     -1.09716101	     -2.94751512	    -15.43701128	     10.66020329	      2.08734277	     -4.41879277	     12.05342810	    -14.66714045	     -0.25598989	      5.66719362	     -5.45232587	     -4.78531753	     -9.51754882	     -0.47384965	     -0.55028304	      8.74506239	     -7.94221427	     17.76113638	     17.65227527	     89.95437384	      0.00000000	      0.00000000	      6.25708504	     10.20876012	    -20.04197533	     19.23196050	     89.95437384	      0.00000000	      0.00000000
      2.23000000	      3.13839328	      1.49893398	     -4.58932704	      0.50914924	      0.90004114	     -1.05209514	     17.61283639	     -3.68849352	     -5.65863520	    -62.11753248	     -1.08415546	     -1.96129040	    -15.49526327	     10.54786941	      1.27709988	     -4.31532003	     12.03196130	    -14.26777699	     -0.24901969	      6.37478110	     -5.53712062	     -4.82857922	     -9.37839259	     -0.10203905	     -0.81017647	      8.41605373	     -8.02116800	     17.62407922	     17.12477253	     89.95437384	      0.00000000	      0.00000000	      7.17078126	     10.41572869	    -20.01533033	     19.59584178	     89.95437384	      0.00000000	      0.00000000
      2.24000000	      3.45734761	      1.13463942	     -4.37244667	      0.51818919	      0.90052592	     -1.05222574	     18.13456686	     -3.01552664	     -5.86638548	    -60.98798496	     -1.06444114	     -0.55179795	    -15.05906256	     10.34117040	      0.17859195	     -4.02788160	     11.41943487	    -14.20502298	     -0.24792442	      7.18709431	     -5.62136438	     -4.81544556	     -9.77606672	      0.34429821	     -1.11087323	      7.99547920	     -8.08213773	     17.01923093	     17.02526223	     89.95437384	      0.00000000	      0.00000000	      8.00276076	     10.79196114	    -19.86131365	     20.45380379	     89.95437384	      0.00000000	      0.00000000
      2.25000000	      3.84204136	      0.90337746	     -4.11835882	      0.52736210	      0.90098703	     -1.05275854	     18.55860069	     -2.64030482	     -6.23673402	    -59.64810331	     -1.04105580	      0.10243338	    -14.54062378	     10.22955411	     -1.05379085	     -3.89188678	     11.23207607	    -13.93243496	     -0.24316686	      7.51831749	     -5.64468030	     -4.69987204	    -10.20215028	      0.69794322	     -1.47276287	      7.61127295	     -8.16123228	     16.36157325	     16.85887703	     89.95437384	      0.00000000	      0.00000000	      8.85847451	     11.09699846	    -19.49863770	     21.22930170	     89.95437384	      0.00000000	      0.00000000
      2.26000000	      3.80060946	      0.86107218	     -4.04328808	      0.53599112	      0.90061064	     -1.05291864	     19.57982253	     -2.46929068	     -6.58725519	    -58.33700907	     -1.01817288	      0.75764994	    -14.16639745	     10.03574346	     -1.68707732	     -3.89880053	     11.17813736	    -13.83013079	     -0.24138132	      7.90585755	     -5.79396481	     -4.67156615	    -10.18823151	      0.82124600	     -1.65007341	      7.21819465	     -8.26315440	     16.14103501	     16.70009720	     89.95437384	      0.00000000	      0.00000000	      9.71676488	     11.40254299	    -19.08700108	     21.92685923	     89.95437384	      0.00000000	      0.00000000
      2.27000000	      3.97254699	      0.68657163	     -3.90517027	      0.54490299	      0.90051632	     -1.05310598	     20.15208605	     -2.25124652	     -7.16031058	    -56.64278279	     -0.98860306	      1.17645668	    -13.72034185	      9.82575616	     -2.58583683	     -3.77218841	     11.09450207	    -13.74077962	     -0.23982185	      8.32853751	     -5.91644398	     -4.61872938	    -10.41381575	      1.09032642	     -1.90363660	      6.86003026	     -8.36533007	     15.86341635	     16.55503741	     89.95437384	      0.00000000	      0.00000000	     10.50827933	     11.64623221	    -18.34007344	     22.66291843	     89.95437384	      0.00000000	      0.00000000
      2.28000000	      3.72274641	      0.89071140	     -3.89429426	      0.55338858	      0.89951933	     -1.05336324	     21.38812508	     -2.43602982	     -7.57929674	    -55.11611114	     -0.96195761	      1.43383213	    -13.38748909	      9.67071825	     -2.86022082	     -4.04011354	     11.19826849	    -13.82996518	     -0.24137843	      8.52557100	     -5.87396873	     -4.59498799	    -10.17009855	      0.95823268	     -1.96803003	      6.41575656	     -8.50488816	     15.84261678	     16.46463535	     89.95437384	      0.00000000	      0.00000000	     11.35914521	     11.93291056	    -18.08344117	     23.35488471	     89.95437384	      0.00000000	      0.00000000
      2.29000000	      3.97315970	      0.48130915	     -3.50491631	      0.56251890	      0.89943061	     -1.05349179	     21.52592559	     -1.99677262	     -8.47528638	    -52.86543240	     -0.92267586	      2.03319843	    -13.02751931	      9.50105857	     -3.92957456	     -3.61100702	     10.78938034	    -13.64732124	     -0.23819069	      9.26764024	     -6.33196875	     -4.72413939	    -10.46676782	      1.48330465	     -2.51619824	      6.19567834	     -8.56574895	     15.83524918	     16.10898404	     89.95437384	      0.00000000	      0.00000000	     12.01333513	     12.23524082	    -17.28078839	     24.17667657	     89.95437384	      0.00000000	      0.00000000
